<?xml version="1.0" encoding="utf-8"?>
<!-- Generator: Adobe Illustrator 15.0.0, SVG Export Plug-In . SVG Version: 6.00 Build 0)  -->
<!DOCTYPE svg PUBLIC "-//W3C//DTD SVG 1.1//EN" "http://www.w3.org/Graphics/SVG/1.1/DTD/svg11.dtd">
<svg version="1.1" id="Layer_1" xmlns="http://www.w3.org/2000/svg" xmlns:xlink="http://www.w3.org/1999/xlink" x="0px" y="0px"
	 width="130px" height="34px" viewBox="0 0 130 34" enable-background="new 0 0 130 34" xml:space="preserve">
<g>
	<defs>
		<rect id="SVGID_1_" x="1" y="0.639" width="128.01" height="32.361"/>
	</defs>
	<clipPath id="SVGID_2_">
		<use xlink:href="#SVGID_1_"  overflow="visible"/>
	</clipPath>
	<path clip-path="url(#SVGID_2_)" fill="#EF4924" d="M11.908,33.001c-2.536,0-4.971-0.864-6.798-2.081L1,32.646V2.057l4.11-1.418
		v13.137c1.421-0.914,4.261-2.081,6.798-2.081c6.848,0,10.805,4.312,10.805,10.652C22.712,28.688,18.755,33.001,11.908,33.001
		 M11.653,15.398c-2.994,0-5.477,1.319-6.544,2.69v8.521c1.267,1.47,3.55,2.689,6.544,2.689c4.921,0,6.952-2.994,6.952-6.952
		C18.605,18.44,16.575,15.398,11.653,15.398"/>
	<path clip-path="url(#SVGID_2_)" fill="#EF4924" d="M48.13,12.05v15.979c0,1.522,0.712,1.875,1.981,1.875
		c0.505,0,1.013-0.101,1.471-0.302v2.688C50.464,32.748,49.247,33,48.03,33c-2.033,0-3.5-0.862-3.91-2.181
		C42.347,32.138,39.659,33,37.224,33c-6.85,0-10.803-4.312-10.803-10.652c0-6.34,3.953-10.653,10.803-10.653
		c2.535,0,5.379,1.168,6.796,2.081 M37.48,29.298c2.99,0,5.273-1.217,6.54-2.688v-8.522c-1.063-1.37-3.55-2.689-6.54-2.689
		c-4.923,0-6.952,3.042-6.952,6.95C30.528,26.304,32.557,29.298,37.48,29.298"/>
	<path clip-path="url(#SVGID_2_)" fill="#EF4924" d="M59.943,11.189v3.802c2.229-2.029,6.898-3.55,8.977-3.55v4.463
		c-2.437,0-7.101,1.068-8.977,2.589v14.001h-4.109V12.608"/>
	<path clip-path="url(#SVGID_2_)" fill="#EF4924" d="M77.685,11.189v3.802c2.233-2.029,6.9-3.55,8.98-3.55v4.463
		c-2.438,0-7.104,1.068-8.98,2.589v14.001h-4.108V12.608"/>
	<path clip-path="url(#SVGID_2_)" fill="#EF4924" d="M98.31,29.119c-1.133,0.002-2.123-0.269-2.79-0.744
		c-0.66-0.481-1.037-1.112-1.044-2.074c0.007-0.972,0.347-1.604,0.959-2.076c0.619-0.468,1.577-0.748,2.779-0.745h5.418v-3.812
		h-5.418c-1.025,0.002-1.849-0.191-2.347-0.531c-0.495-0.347-0.76-0.779-0.772-1.602c0.011-0.801,0.267-1.294,0.763-1.679
		c0.5-0.378,1.325-0.622,2.452-0.621c1.678,0,3.412,0.225,5.536,0.548l0.704,0.108v-3.907l-0.543-0.063
		c-1.684-0.194-3.521-0.494-6.025-0.494c-2.088,0-3.79,0.569-4.979,1.625c-1.191,1.051-1.817,2.573-1.812,4.287
		c-0.007,1.705,0.648,3.135,1.752,4.146c-1.473,1.131-2.35,2.889-2.342,4.977c-0.004,1.891,0.679,3.551,1.971,4.696
		c1.292,1.148,3.139,1.77,5.404,1.77h0.007c2.482,0.002,4.133-0.167,6.494-0.494l0.527-0.075v-3.893l-0.702,0.104
		C101.915,28.931,100.429,29.119,98.31,29.119"/>
	<path clip-path="url(#SVGID_2_)" fill="#EF4924" d="M126.665,21.484c1.107-1.012,1.765-2.439,1.758-4.146
		c0.004-1.712-0.621-3.234-1.816-4.285c-1.186-1.056-2.892-1.625-4.977-1.625c-2.502,0-4.346,0.3-6.023,0.494l-0.543,0.061v3.908
		l0.706-0.107c2.117-0.325,3.854-0.55,5.529-0.55c1.131,0,1.954,0.244,2.458,0.622c0.494,0.383,0.748,0.876,0.759,1.678
		c-0.014,0.822-0.278,1.253-0.771,1.602c-0.501,0.34-1.323,0.534-2.347,0.532h-5.419v3.811h5.419
		c1.204-0.004,2.158,0.277,2.777,0.744c0.611,0.476,0.953,1.106,0.961,2.075c-0.011,0.964-0.384,1.594-1.046,2.077
		c-0.666,0.475-1.658,0.746-2.792,0.744c-2.115-0.002-3.605-0.189-5.99-0.551l-0.702-0.105v3.894l0.527,0.073
		c2.364,0.329,4.015,0.496,6.496,0.496h0.008c2.261,0,4.111-0.621,5.401-1.769c1.296-1.148,1.975-2.806,1.971-4.697
		C129.021,24.377,128.14,22.618,126.665,21.484"/>
	<rect x="115.263" y="5.125" clip-path="url(#SVGID_2_)" fill="#EF4924" width="12.165" height="2.573"/>
</g>
</svg>
