<?xml version="1.0" encoding="iso-8859-1"?>
<!-- Generator: Adobe Illustrator 18.1.1, SVG Export Plug-In . SVG Version: 6.00 Build 0)  -->
<svg version="1.1" id="Capa_1" xmlns="http://www.w3.org/2000/svg" xmlns:xlink="http://www.w3.org/1999/xlink" x="0px" y="0px"
	 viewBox="0 0 15.909 15.909" style="enable-background:new 0 0 15.909 15.909;" xml:space="preserve">
<g>
	<g>
		<circle style="fill:#030104;" cx="6.365" cy="13.783" r="1.322"/>
		<circle style="fill:#030104;" cx="11.716" cy="13.783" r="1.322"/>
		<path style="fill:#030104;" d="M15.085,5.001c-0.662,0-0.846,1.326-0.846,1.326l-0.41,1.389l-0.382,1.235l0.018-0.001
			l-0.387,1.301h-2.147H7.956H5.653l-0.163-1.3L5.336,7.716L5.162,6.327L5.028,5.001c0,0-0.01,0.003-0.027,0.008L5,5.001
			c0,0-0.143-1.223-0.224-1.729C4.693,2.766,3.425,2.131,0.697,0.845c-0.642-0.269-1.178,0.903,0,1.518l2.151,1.006
			c0,0,0.5,0.29,0.543,0.68c0.043,0.391,0.916,6.863,0.916,6.863S4.342,11.81,5.16,11.81s7.523,0,8.209,0s0.82-0.717,0.82-0.717
			l1.627-4.831C15.815,6.262,16.297,5.001,15.085,5.001z"/>
		<path style="fill:#030104;" d="M7.593,4.717c0.042,0.021,0.089,0.027,0.134,0.018c0.036-0.007,0.07-0.022,0.098-0.048l1.139-0.99
			c0.199,0.22,0.394,0.457,0.566,0.692c0.321,0.441,0.594,0.915,0.767,1.416c0.173,0.499,0.242,1.035,0.102,1.56
			c-0.132,0.527-0.489,1.019-0.95,1.406c0.548-0.238,1.083-0.619,1.432-1.192c0.354-0.568,0.481-1.277,0.456-1.947
			c-0.025-0.676-0.181-1.331-0.395-1.953c-0.155-0.43-0.323-0.833-0.532-1.241l1.231-1.071c0.066-0.056,0.089-0.145,0.061-0.226
			c-0.025-0.081-0.099-0.137-0.183-0.143l-2.731-0.19C8.222,0.767,7.706,1.22,7.666,1.785L7.477,4.514
			C7.47,4.599,7.516,4.679,7.593,4.717z"/>
	</g>
</g>
<g>
</g>
<g>
</g>
<g>
</g>
<g>
</g>
<g>
</g>
<g>
</g>
<g>
</g>
<g>
</g>
<g>
</g>
<g>
</g>
<g>
</g>
<g>
</g>
<g>
</g>
<g>
</g>
<g>
</g>
</svg>
